<svg xmlns="http://www.w3.org/2000/svg"  viewBox="0 0 100 100" width="100px" height="100px"><path d="M 31 17.988281 C 23.82 17.988281 18 23.808281 18 30.988281 L 18 69.988281 C 18 77.168281 23.82 82.988281 31 82.988281 L 70 82.988281 C 77.179 82.988281 83 77.168281 83 69.988281 L 83 30.988281 C 83 23.808281 77.18 17.988281 70 17.988281 L 31 17.988281 z M 31 19.988281 L 70 19.988281 C 76.075 19.988281 81 24.913281 81 30.988281 L 81 69.988281 C 81 76.063281 76.075 80.988281 70 80.988281 L 31 80.988281 C 24.925 80.988281 20 76.063281 20 69.988281 L 20 30.988281 C 20 24.913281 24.924 19.988281 31 19.988281 z M 33.837891 22.988281 C 27.852891 22.988281 23 27.839219 23 33.824219 L 23 67.150391 C 23 73.135391 27.852891 77.988281 33.837891 77.988281 L 67.162109 77.988281 C 73.147109 77.988281 78 73.136391 78 67.150391 L 78 48.488281 C 78 48.212281 77.776 47.988281 77.5 47.988281 C 77.224 47.988281 77 48.212281 77 48.488281 L 77 67.150391 C 77 72.583391 72.595109 76.988281 67.162109 76.988281 L 33.837891 76.988281 C 28.404891 76.988281 24 72.583391 24 67.150391 L 24 33.824219 C 24 28.391219 28.404891 23.988281 33.837891 23.988281 L 67.5 23.988281 C 67.776 23.988281 68 23.764281 68 23.488281 C 68 23.212281 67.776 22.988281 67.5 22.988281 L 33.837891 22.988281 z M 38 36 C 33.035726 36 29 40.035726 29 45 C 29 48.386816 30.882667 51.328083 33.652344 52.863281 C 32.622836 54.129931 32 55.734984 32 57.5 C 32 61.636219 35.363781 65 39.5 65 L 62 65 C 67.517186 65 72 60.517186 72 55 C 72 49.482814 67.517186 45 62 45 C 60.526094 45 59.148878 45.364158 57.890625 45.9375 C 56.186085 42.441289 52.646701 40 48.5 40 C 47.534444 40 46.604597 40.141144 45.71875 40.386719 C 44.146604 37.76191 41.27877 36 38 36 z M 77.5 36.566406 C 77.224 36.566406 77 36.790406 77 37.066406 L 77 39.066406 C 77 39.342406 77.224 39.566406 77.5 39.566406 C 77.776 39.566406 78 39.343406 78 39.066406 L 78 37.066406 C 78 36.790406 77.776 36.566406 77.5 36.566406 z M 38 37 C 40.840556 37 43.314575 38.487256 44.734375 40.712891 C 40.909544 42.201215 38.18389 45.879883 38.058594 50.208984 C 36.638922 50.490943 35.363463 51.168942 34.349609 52.117188 C 31.76876 50.790229 30 48.106956 30 45 C 30 40.576274 33.576274 37 38 37 z M 77.5 40.566406 C 77.224 40.566406 77 40.790406 77 41.066406 L 77 45.066406 C 77 45.342406 77.224 45.566406 77.5 45.566406 C 77.776 45.566406 78 45.343406 78 45.066406 L 78 41.066406 C 78 40.790406 77.776 40.566406 77.5 40.566406 z M 48.5 41 C 52.415397 41 55.768656 43.366807 57.224609 46.742188 A 0.50005 0.50005 0 0 0 57.912109 46.988281 C 59.141334 46.359442 60.52562 46 62 46 C 66.976814 46 71 50.023186 71 55 C 71 59.976814 66.976814 64 62 64 L 39.5 64 C 35.904219 64 33 61.095781 33 57.5 C 33 54.219763 35.422893 51.524674 38.574219 51.074219 A 0.50005 0.50005 0 0 0 39.003906 50.578125 C 39.003906 50.501742 39 50.477617 39 50.5 C 39 45.247203 43.247203 41 48.5 41 z"/></svg>